<svg width="14" height="8" viewBox="0 0 14 8" fill="none" xmlns="http://www.w3.org/2000/svg">
<path d="M1.06543 6.85791L6.73438 1.05713C6.86621 0.917969 7.04199 0.837402 7.23242 0.837402C7.41553 0.837402 7.59863 0.917969 7.72314 1.05713L13.3921 6.85791C13.5166 6.9751 13.5898 7.14355 13.5898 7.33398C13.5898 7.71484 13.3042 8.00049 12.9233 8.00049C12.7402 8.00049 12.5645 7.93457 12.4473 7.81006L7.23242 2.47803L2.01025 7.81006C1.90039 7.93457 1.72461 8.00049 1.53418 8.00049C1.15332 8.00049 0.867676 7.71484 0.867676 7.33398C0.867676 7.14355 0.940918 6.9751 1.06543 6.85791Z" fill="#575B6C"/>
</svg>
