<svg width="14" height="8" viewBox="0 0 14 8" fill="none" xmlns="http://www.w3.org/2000/svg">
<path d="M7.23242 7.61572C7.04199 7.61572 6.87354 7.54248 6.73438 7.40332L1.06543 1.60254C0.940918 1.4707 0.867676 1.30957 0.867676 1.12646C0.867676 0.745605 1.15332 0.452637 1.53418 0.452637C1.72461 0.452637 1.89307 0.525879 2.01025 0.643066L7.23242 5.9751L12.4473 0.643066C12.5718 0.525879 12.7402 0.452637 12.9233 0.452637C13.3042 0.452637 13.5898 0.745605 13.5898 1.12646C13.5898 1.30957 13.5166 1.4707 13.3921 1.59521L7.72314 7.40332C7.59863 7.54248 7.41553 7.61572 7.23242 7.61572Z" fill="#575B6C"/>
</svg>
