<svg width="353" height="95" viewBox="0 0 353 95" fill="none" xmlns="http://www.w3.org/2000/svg">
<path fill-rule="evenodd" clip-rule="evenodd" d="M246.338 0H12C5.37258 0 0 5.37258 0 12V83C0 89.6274 5.37258 95 12 95H245.832C247.375 91.4682 250.899 89 255 89C259.101 89 262.625 91.4682 264.168 95H341C347.627 95 353 89.6274 353 83V12C353 5.37258 347.627 0 341 0H263.662C261.933 2.98901 258.701 5 255 5C251.299 5 248.067 2.98901 246.338 0Z" fill="white"/>
<line opacity="0.5" x1="254.5" y1="5" x2="254.5" y2="89" stroke="#B3B4B6" stroke-dasharray="3 3"/>
</svg>
