<svg width="31" height="31" viewBox="0 0 31 31" fill="none" xmlns="http://www.w3.org/2000/svg">
<path d="M15.5635 30.3652C7.4043 30.3652 0.62207 23.583 0.62207 15.4238C0.62207 7.25 7.38965 0.482422 15.5488 0.482422C23.7227 0.482422 30.5049 7.25 30.5049 15.4238C30.5049 23.583 23.7373 30.3652 15.5635 30.3652ZM8.41504 15.4385C8.41504 16.1855 8.94238 16.6836 9.7041 16.6836H14.2891V21.2832C14.2891 22.0303 14.8018 22.5723 15.5488 22.5723C16.3105 22.5723 16.8379 22.0449 16.8379 21.2832V16.6836H21.4375C22.1846 16.6836 22.7266 16.1855 22.7266 15.4385C22.7266 14.6768 22.1846 14.1494 21.4375 14.1494H16.8379V9.56445C16.8379 8.80273 16.3105 8.26074 15.5488 8.26074C14.8018 8.26074 14.2891 8.80273 14.2891 9.56445V14.1494H9.7041C8.94238 14.1494 8.41504 14.6768 8.41504 15.4385Z" fill="#B3B4B6"/>
</svg>
