<svg width="14" height="13" viewBox="0 0 14 13" fill="none" xmlns="http://www.w3.org/2000/svg">
<path d="M0.95752 6.71191C0.95752 6.35303 1.25781 6.05273 1.60938 6.05273H6.34814V1.32129C6.34814 0.969727 6.64111 0.669434 7 0.669434C7.35889 0.669434 7.65918 0.969727 7.65918 1.32129V6.05273H12.3906C12.7422 6.05273 13.0425 6.35303 13.0425 6.71191C13.0425 7.0708 12.7422 7.36377 12.3906 7.36377H7.65918V12.1025C7.65918 12.4541 7.35889 12.7544 7 12.7544C6.64111 12.7544 6.34814 12.4541 6.34814 12.1025V7.36377H1.60938C1.25781 7.36377 0.95752 7.0708 0.95752 6.71191Z" fill="#848794"/>
</svg>
