<svg width="17" height="18" viewBox="0 0 17 18" fill="none" xmlns="http://www.w3.org/2000/svg">
<path d="M8.4668 17.4727C3.84326 17.4727 0 13.6294 0 9.00586C0 4.37402 3.83496 0.539062 8.4585 0.539062C13.0903 0.539062 16.9336 4.37402 16.9336 9.00586C16.9336 13.6294 13.0986 17.4727 8.4668 17.4727ZM8.4668 16.0615C12.3848 16.0615 15.5225 12.9238 15.5225 9.00586C15.5225 5.08789 12.3765 1.9502 8.4585 1.9502C4.54053 1.9502 1.41943 5.08789 1.41943 9.00586C1.41943 12.9238 4.54883 16.0615 8.4668 16.0615ZM8.29248 10.7241C7.86914 10.7241 7.62842 10.5 7.62842 10.0684V9.96045C7.62842 9.14697 8.07666 8.70703 8.67432 8.29199C9.39648 7.78564 9.74512 7.51172 9.74512 6.94727C9.74512 6.31641 9.25537 5.88477 8.5 5.88477C7.94385 5.88477 7.51221 6.16699 7.22168 6.64844L7.07227 6.84766C6.92285 7.04688 6.74023 7.17969 6.45801 7.17969C6.18408 7.17969 5.89355 6.98047 5.89355 6.60693C5.89355 6.46582 5.91846 6.33301 5.95996 6.2002C6.18408 5.43652 7.12207 4.75586 8.5498 4.75586C9.96094 4.75586 11.1895 5.50293 11.1895 6.88086C11.1895 7.87695 10.6167 8.3584 9.81152 8.88965C9.23047 9.27148 8.96484 9.57031 8.96484 10.0352V10.1348C8.96484 10.4585 8.70752 10.7241 8.29248 10.7241ZM8.27588 13.1978C7.79443 13.1978 7.37939 12.8076 7.37939 12.3345C7.37939 11.8613 7.78613 11.4712 8.27588 11.4712C8.76562 11.4712 9.17236 11.853 9.17236 12.3345C9.17236 12.8159 8.75732 13.1978 8.27588 13.1978Z" fill="#B3B4B6"/>
</svg>
