<svg width="22" height="23" viewBox="0 0 22 23" fill="none" xmlns="http://www.w3.org/2000/svg">
<path d="M20.3369 7.27338L19.0605 5.06168C18.6161 4.29172 17.6291 4.023 16.854 4.47258L16.0633 4.92732C14.9885 5.54743 13.6398 4.7723 13.6398 3.52692V2.61744C13.6398 1.72345 12.9163 1 12.0223 1H9.46441C8.57043 1 7.84697 1.72345 7.84697 2.61744V3.52692C7.84697 4.7723 6.50341 5.54743 5.4234 4.92732L4.63277 4.47258C3.8628 4.02817 2.87064 4.29172 2.42623 5.06168L1.14986 7.27338C0.705449 8.04334 0.968992 9.03551 1.73895 9.47991L2.52959 9.93466C3.60443 10.5548 3.60443 12.1102 2.52959 12.7303L1.73895 13.185C0.968992 13.6294 0.700281 14.6164 1.14986 15.3916L2.42623 17.6033C2.87064 18.3732 3.85764 18.6419 4.63277 18.1924L5.4234 17.7376C6.49824 17.1175 7.84697 17.8926 7.84697 19.138V20.0475C7.84697 20.9415 8.57043 21.6649 9.46441 21.6649H12.0223C12.9163 21.6649 13.6398 20.9415 13.6398 20.0475V19.138C13.6398 17.8926 14.9833 17.1175 16.0633 17.7376L16.854 18.1924C17.6239 18.6368 18.6161 18.3732 19.0605 17.6033L20.3369 15.3916C20.7813 14.6216 20.5178 13.6294 19.7478 13.185L18.9572 12.7303C17.8823 12.1102 17.8823 10.5548 18.9572 9.93466L19.7478 9.47991C20.5178 9.03551 20.7865 8.04851 20.3369 7.27338Z" stroke="#575B6C" stroke-width="1.2" stroke-linejoin="round"/>
<path d="M10.7507 14.6268C12.5687 14.6268 14.0424 13.153 14.0424 11.3351C14.0424 9.51709 12.5687 8.04333 10.7507 8.04333C8.93273 8.04333 7.45898 9.51709 7.45898 11.3351C7.45898 13.153 8.93273 14.6268 10.7507 14.6268Z" stroke="#575B6C" stroke-width="1.2" stroke-linejoin="round"/>
</svg>
