<svg width="77" height="77" viewBox="0 0 77 77" fill="none" xmlns="http://www.w3.org/2000/svg">
<path d="M36.4272 0.0543387C16.9939 1.07231 1.07368 16.9836 0.0544909 36.4068C-1.1103 58.5999 16.5501 76.9594 38.4995 76.9594C45.179 76.9594 51.4571 75.2526 56.9309 72.2597C58.3724 71.4718 60.218 71.8626 61.086 73.2569C64.3766 78.5387 69.919 77.4008 71.8624 74.8999C76.4828 68.9514 76.9917 38.4525 76.9917 38.4525L77 38.4802C76.9993 16.5422 58.631 -1.10846 36.4272 0.0543387ZM56.8152 50.7139C51.8863 55.6423 45.3364 58.3559 38.3719 58.3559C31.4075 58.3559 24.859 55.6423 19.9301 50.7139C18.1649 48.9496 18.1649 46.089 19.9301 44.3261C21.6953 42.5618 24.5553 42.5618 26.3212 44.3261C29.5431 47.5463 33.8223 49.3217 38.3719 49.3217C42.9216 49.3217 47.2008 47.5463 50.4247 44.3261C52.19 42.5618 55.0499 42.5618 56.8158 44.3261C58.5817 46.0904 58.5811 48.9489 56.8158 50.7139H56.8152Z" fill="white"/>
</svg>
