<svg width="124" height="124" viewBox="0 0 124 124" fill="none" xmlns="http://www.w3.org/2000/svg">
<rect width="124" height="124" rx="36" fill="#FFEE2E"/>
<path d="M60.0595 21.963C39.9263 23.0176 23.4327 39.502 22.3768 59.6248C21.17 82.6171 39.4665 101.638 62.2065 101.638C69.1266 101.638 75.6308 99.8697 81.3017 96.769C82.7951 95.9527 84.7072 96.3576 85.6065 97.8021C89.0156 103.274 94.7577 102.095 96.771 99.5043C101.558 93.3416 102.085 61.7441 102.085 61.7441L102.094 61.7728C102.093 39.0446 83.063 20.7583 60.0595 21.963ZM81.1818 74.4471C76.0754 79.553 69.2896 82.3644 62.0743 82.3644C54.859 82.3644 48.0746 79.553 42.9683 74.4471C41.1395 72.6193 41.1395 69.6557 42.9683 67.8293C44.797 66.0014 47.76 66.0014 49.5895 67.8293C52.9275 71.1655 57.3608 73.0048 62.0743 73.0048C66.7878 73.0048 71.2211 71.1655 74.5612 67.8293C76.39 66.0014 79.353 66.0014 81.1825 67.8293C83.012 69.6571 83.0113 72.6186 81.1825 74.4471H81.1818Z" fill="white"/>
</svg>
